<svg width="67" height="53" viewBox="0 0 67 53" fill="none" xmlns="http://www.w3.org/2000/svg">
<path fill-rule="evenodd" clip-rule="evenodd" d="M0 0.000971429H33.5558L67 0V14.6103L33.5568 52.6952L33.3335 52.9623L0 14.1663V0.000971429ZM4.07175 1.12006V2.97257L2.44345 1.12103L4.07175 1.12006ZM62.5557 1.12103V3.48549L64.6672 1.12103H62.5557ZM12.6559 12.7073L12.5645 12.6266L13.3963 13.5722L13.396 13.5728L33.3315 36.2362L13.3963 13.5722C16.0915 9.15955 19.951 8.49923 24.1028 13.2736C24.7666 14.0677 25.1695 14.7898 25.4925 15.3688C25.95 16.1887 26.2474 16.7219 26.8995 16.7669C28.0555 16.8459 28.6239 16.112 29.1892 15.382C29.6382 14.8022 30.0852 14.225 30.8231 14.0595C32.2658 13.735 32.9303 14.0835 33.583 14.4257C33.79 14.5343 33.9958 14.6422 34.2248 14.7278C34.5113 14.8351 34.779 14.9029 35.0268 14.9657C35.6633 15.1269 36.1685 15.2549 36.5221 15.9324C36.64 16.1578 36.7384 16.3834 36.8346 16.6036C37.2609 17.5804 37.6416 18.4526 39.4681 18.7427C42.055 19.1547 44.242 18.2295 46.5176 17.2669C48.1489 16.5768 49.8258 15.8675 51.7281 15.6177L54.2812 12.7568C54.1746 12.6499 51.7768 10.2894 48.0563 7.94823C44.5753 5.75766 39.196 3.14063 33.3305 3.11343C27.4517 3.08234 22.1476 5.69063 18.7296 7.88509C15.1328 10.1944 12.826 12.5347 12.6648 12.6983L12.6559 12.7073ZM62.04 1.12006H58.7641V7.73257L62.04 4.06349V1.12006ZM54.6477 12.2497V1.12103H58.2474V8.31349L54.6944 12.2944C54.6793 12.279 54.6638 12.2641 54.6477 12.2497ZM54.1319 11.7689V2.15754L50.521 8.86817C51.7809 9.76909 52.9864 10.7375 54.1319 11.7689ZM49.9038 1.80977V8.43395C49.4338 8.10949 48.9394 7.78017 48.4166 7.45086C47.7426 7.02537 46.9954 6.58434 46.1894 6.14914L49.9038 1.80977ZM45.5265 5.79943V1.68057L42.3592 4.36754C43.4405 4.79138 44.4977 5.26933 45.5265 5.79943ZM46.0422 1.12103H49.8256L46.0422 5.54103V1.12103ZM54.1076 1.12103H50.4195L50.4185 7.97932L54.1076 1.12103ZM41.4893 1.12103H45.4077L41.8243 4.15966C41.7579 4.13518 41.6904 4.11174 41.6229 4.08831C41.5779 4.07269 41.5329 4.05707 41.4882 4.04114V1.12103H41.4893ZM40.9725 3.86046V1.52611L37.8255 2.9988C38.8922 3.22326 39.9432 3.51104 40.9725 3.86046ZM36.7059 1.56691V2.79092C35.9734 2.67328 35.2351 2.59157 34.4938 2.54612L36.7059 1.56691ZM32.1194 2.54126L29.8374 1.52903V2.78703C30.5845 2.66754 31.3459 2.58303 32.1194 2.54126ZM25.6549 1.52611L28.7663 2.98132C27.6903 3.20377 26.6518 3.49423 25.6539 3.83132L25.6549 1.52611ZM25.9655 1.12103L29.3196 2.69183L29.3206 1.12103H25.9655ZM32.9396 2.3596L30.1439 1.12103H32.9396V2.3596ZM36.4825 1.12103H33.5579V2.41692L36.4825 1.12103ZM37.3738 1.12103H40.6629L37.3738 2.65977V1.12103ZM21.2116 1.122L24.7748 4.14314L25.1392 4.012V1.122H21.2116ZM21.1019 1.68834L24.2418 4.35103C23.1685 4.7782 22.1203 5.26107 21.1019 5.79749V1.68834ZM20.4197 6.16469L16.7246 1.81269V8.50583C17.9055 7.65442 19.1395 6.8726 20.4197 6.16469ZM12.4965 2.16046L16.1368 8.9352C14.8572 9.88106 13.6413 10.9034 12.4965 11.9962V2.16046ZM12.5188 1.12103L16.2079 7.98903V1.12103H12.5188ZM20.5852 5.57503L16.8028 1.12103H20.5852V5.57503ZM4.5885 3.55932L7.8644 7.2828V1.12103H4.5885V3.55932ZM8.3801 1.12103H11.9788V11.9622L8.37909 7.87052L8.3801 1.12103Z" fill="#491213"/>
</svg>
